<svg width="20" height="20" viewBox="0 0 20 20" fill="none" xmlns="http://www.w3.org/2000/svg">
<path d="M12.932 9.67722L18.7505 3.85272C19.1283 3.42336 19.3283 2.86626 19.3101 2.29466C19.2918 1.72306 19.0566 1.17986 18.6522 0.775469C18.2478 0.37108 17.7046 0.135855 17.133 0.117605C16.5614 0.0993555 16.0043 0.299452 15.575 0.677221L9.75048 6.49572L3.91548 0.65922C3.70648 0.450222 3.45837 0.284435 3.1853 0.171326C2.91223 0.0582166 2.61955 2.20216e-09 2.32398 0C2.02841 -2.20216e-09 1.73574 0.0582166 1.46267 0.171326C1.1896 0.284435 0.94148 0.450222 0.732481 0.65922C0.523483 0.868219 0.357696 1.11634 0.244587 1.38941C0.131478 1.66248 0.073261 1.95515 0.073261 2.25072C0.073261 2.54629 0.131478 2.83896 0.244587 3.11203C0.357696 3.3851 0.523483 3.63322 0.732481 3.84222L6.56898 9.67722L0.750482 15.5002C0.522291 15.7042 0.338116 15.9526 0.209227 16.2302C0.0803373 16.5078 0.0094431 16.8088 0.000880675 17.1148C-0.00768175 17.4207 0.0462678 17.7252 0.159429 18.0096C0.272591 18.294 0.442584 18.5523 0.65901 18.7687C0.875435 18.9851 1.13374 19.1551 1.41813 19.2683C1.70251 19.3814 2.00699 19.4354 2.31294 19.4268C2.6189 19.4183 2.91988 19.3474 3.19749 19.2185C3.4751 19.0896 3.7235 18.9054 3.92748 18.6772L9.75048 12.8587L15.5675 18.6772C15.9896 19.0993 16.5621 19.3364 17.159 19.3364C17.7559 19.3364 18.3284 19.0993 18.7505 18.6772C19.1726 18.2551 19.4097 17.6826 19.4097 17.0857C19.4097 16.4888 19.1726 15.9163 18.7505 15.4942L12.932 9.67722Z" fill="#DBE0E4"/>
</svg>
