<svg width="28" height="28" viewBox="0 0 28 28" fill="none" xmlns="http://www.w3.org/2000/svg">
<path d="M26.0237 9.13168L18.3878 1.81668C17.2284 0.65756 15.6574 0.00437072 14.0179 -0.000219781C12.3784 -0.00481029 10.8038 0.639571 9.63783 1.79218L1.97633 9.13168C1.35263 9.73205 0.856202 10.4519 0.516658 11.2482C0.177113 12.0446 0.00140127 12.9011 0 13.7668L0 21.5835C0.00185286 23.2847 0.678488 24.9158 1.88144 26.1187C3.0844 27.3217 4.71543 27.9983 6.41667 28.0002H21.5833C23.2846 27.9983 24.9156 27.3217 26.1186 26.1187C27.3215 24.9158 27.9981 23.2847 28 21.5835V13.7668C27.9986 12.9011 27.8229 12.0446 27.4833 11.2482C27.1438 10.4519 26.6474 9.73205 26.0237 9.13168V9.13168ZM12.0867 4.29351C12.3407 4.0417 12.642 3.84252 12.9732 3.70742C13.3044 3.57232 13.6591 3.50394 14.0168 3.50622C14.3745 3.50849 14.7282 3.58138 15.0577 3.72068C15.3871 3.85999 15.6858 4.06298 15.9367 4.31801L22.2157 10.3333L16.0603 16.6462C15.5047 17.1768 14.766 17.4728 13.9977 17.4728C13.2294 17.4728 12.4906 17.1768 11.935 16.6462L5.7015 10.4103L12.0867 4.29351ZM24.5 21.5835C24.5 22.3571 24.1927 23.0989 23.6457 23.6459C23.0987 24.1929 22.3569 24.5002 21.5833 24.5002H6.41667C5.64312 24.5002 4.90125 24.1929 4.35427 23.6459C3.80729 23.0989 3.5 22.3571 3.5 21.5835V13.7668C3.50082 13.5815 3.51997 13.3966 3.55717 13.215L9.46283 19.1218C10.6724 20.3209 12.3075 20.9924 14.0107 20.9896C15.7139 20.9867 17.3467 20.3098 18.5523 19.1067L24.4137 13.0972C24.4688 13.3162 24.4977 13.541 24.5 13.7668V21.5835Z" fill="#17144C"/>
</svg>
