<svg width="20" height="20" viewBox="0 0 20 20" fill="none" xmlns="http://www.w3.org/2000/svg">
<path fill-rule="evenodd" clip-rule="evenodd" d="M9.99983 3.33203C14.2597 3.33214 17.8979 6.00562 19.1268 9.73926C19.1825 9.90872 19.1826 10.0923 19.1268 10.2617C17.8977 13.9951 14.2595 16.6688 9.99983 16.6689C5.74024 16.6688 2.103 13.9949 0.873855 10.2617C0.818067 10.0922 0.818113 9.90876 0.873855 9.73926C2.10279 6.00568 5.73998 3.33216 9.99983 3.33203ZM9.99983 5.00195C6.54245 5.00208 3.63006 7.10579 2.55159 10C3.62999 12.8943 6.54238 14.9989 9.99983 14.999C13.4573 14.9989 16.3696 12.8943 17.4481 10C16.3695 7.10589 13.4572 5.00206 9.99983 5.00195ZM9.99983 6.66504C11.8703 6.66526 13.4547 8.12199 13.4549 10C13.4547 11.878 11.8703 13.3347 9.99983 13.335C8.12914 13.335 6.54494 11.8782 6.54475 10C6.54494 8.12184 8.12914 6.66504 9.99983 6.66504ZM9.99983 8.33496C8.97685 8.33496 8.21486 9.11702 8.21468 10C8.21486 10.883 8.97685 11.665 9.99983 11.665C11.0226 11.6648 11.7848 10.8829 11.785 10C11.7848 9.11714 11.0226 8.33518 9.99983 8.33496Z" fill="#94979E"/>
</svg>
