<svg width="20" height="20" viewBox="0 0 20 20" fill="none" xmlns="http://www.w3.org/2000/svg">
<g clip-path="url(#clip0_118_1675)">
<path d="M1.46824 6.97917L0.816574 7.81833C0.212748 8.59516 -0.073184 9.57248 0.0167175 10.5523C0.106619 11.5321 0.56563 12.441 1.30074 13.095L7.66657 19.1292C8.30816 19.6887 9.13114 19.9961 9.98241 19.9942C10.8597 19.9937 11.7068 19.6734 12.3649 19.0933L18.6649 13.1408C19.4079 12.5007 19.8792 11.6016 19.9831 10.6265C20.0869 9.65126 19.8155 8.67311 19.2241 7.89083L18.5974 7.05167C18.1166 6.41445 17.4945 5.89751 16.78 5.54149C16.0655 5.18548 15.2782 5.00012 14.4799 5H5.53241C4.74936 5.0008 3.97672 5.17935 3.27271 5.52219C2.56871 5.86503 1.95171 6.3632 1.46824 6.97917ZM2.79324 9.35083L3.44241 8.5125C3.69146 8.1966 4.00897 7.94134 4.371 7.76595C4.73302 7.59057 5.13013 7.49963 5.53241 7.5H7.55324L7.07574 8.67167C6.85401 9.22587 6.74987 9.8201 6.76991 10.4167H13.2007C13.2383 9.78728 13.1367 9.15736 12.9032 8.57167L12.4674 7.5H14.4799C14.8901 7.49925 15.2949 7.59378 15.6624 7.77614C16.0298 7.95849 16.3499 8.22369 16.5974 8.55083L17.2241 9.39C17.3326 9.53552 17.4107 9.70145 17.4537 9.87786C17.4967 10.0543 17.5036 10.2375 17.4741 10.4167H13.2007C13.1834 10.8724 13.0936 11.3225 12.9349 11.75L10.4607 17.375C10.3166 17.4485 10.1571 17.4869 9.99532 17.4869C9.83353 17.4869 9.67403 17.4485 9.52991 17.375L7.04491 11.8533C6.87216 11.3936 6.77916 10.9077 6.76991 10.4167H2.51991C2.48902 10.2298 2.49736 10.0385 2.54442 9.85499C2.59148 9.67149 2.67622 9.4998 2.79324 9.35083Z" fill="#17144C"/>
<path d="M13.6991 0.366219L12.8657 1.19955C12.6312 1.43405 12.4995 1.75209 12.4995 2.08372C12.4995 2.41535 12.6312 2.73339 12.8657 2.96789C13.1002 3.20238 13.4183 3.33412 13.7499 3.33412C14.0815 3.33412 14.3996 3.20238 14.6341 2.96789L15.4674 2.13455C15.7019 1.90006 15.8336 1.58201 15.8336 1.25039C15.8336 0.918758 15.7019 0.600714 15.4674 0.366219C15.2329 0.131723 14.9149 -1.52588e-05 14.5832 -1.52588e-05C14.2516 -1.52588e-05 13.9336 0.131723 13.6991 0.366219Z" fill="#3E57A7"/>
<path d="M6.24999 3.33372C6.4973 3.33383 6.73908 3.26058 6.94475 3.12324C7.15041 2.98589 7.31072 2.79063 7.40537 2.56215C7.50003 2.33367 7.52478 2.08225 7.4765 1.8397C7.42823 1.59715 7.30908 1.37437 7.13415 1.19955L6.30082 0.366219C6.06633 0.131723 5.74828 -1.52613e-05 5.41666 -1.52588e-05C5.08503 -1.52563e-05 4.76699 0.131723 4.53249 0.366219C4.298 0.600714 4.16626 0.918758 4.16626 1.25039C4.16626 1.58201 4.298 1.90006 4.53249 2.13455L5.36582 2.96789C5.48195 3.08394 5.61981 3.17598 5.77152 3.23875C5.92322 3.30152 6.08581 3.33379 6.24999 3.33372Z" fill="#3E57A7"/>
<path d="M8.75 1.25V2.08333C8.75 2.41485 8.8817 2.7328 9.11612 2.96722C9.35054 3.20164 9.66848 3.33333 10 3.33333C10.3315 3.33333 10.6495 3.20164 10.8839 2.96722C11.1183 2.7328 11.25 2.41485 11.25 2.08333V1.25C11.25 0.918479 11.1183 0.600537 10.8839 0.366116C10.6495 0.131696 10.3315 0 10 0C9.66848 0 9.35054 0.131696 9.11612 0.366116C8.8817 0.600537 8.75 0.918479 8.75 1.25Z" fill="#3E57A7"/>
</g>
<defs>
<clipPath id="clip0_118_1675">
<rect width="20" height="20" fill="white"/>
</clipPath>
</defs>
</svg>
