<svg width="20" height="20" viewBox="0 0 20 20" fill="none" xmlns="http://www.w3.org/2000/svg">
<g clip-path="url(#clip0_166_264)">
<path d="M19.4182 8.18182C19.5364 8.83637 19.6 9.51819 19.6 10.2273C19.6 13.2727 18.5091 15.8364 16.6182 17.5773L13.3864 15.0682C14.4455 14.3591 15.15 13.3 15.3818 12.05H10V8.18182H19.4182Z" fill="#4285F4"/>
<path d="M16.6181 17.5773C14.9636 19.1046 12.7 20 9.99996 20C6.09087 20 2.70905 17.7591 1.0636 14.4909L4.40451 11.9C5.19087 14.2637 7.39542 16.0228 9.99996 16.0228C11.3454 16.0228 12.4909 15.6682 13.3863 15.0682L16.6181 17.5773Z" fill="#34A853"/>
<path fill-rule="evenodd" clip-rule="evenodd" d="M4.40455 11.9C4.20455 11.3 4.09091 10.6591 4.09091 10C4.09091 9.34091 4.20455 8.7 4.40455 8.1L1.06364 5.50909C0.386364 6.85909 0 8.38637 0 10C0 11.6136 0.386364 13.1409 1.06364 14.4909L4.40455 11.9Z" fill="#FBBC05"/>
<path fill-rule="evenodd" clip-rule="evenodd" d="M9.99996 3.97727C11.4681 3.97727 12.7863 4.48182 13.8227 5.47273L16.6909 2.60455C14.9591 0.990909 12.6954 0 9.99996 0C6.09087 0 2.70905 2.24091 1.0636 5.50909L4.40451 8.1C5.19087 5.73636 7.39542 3.97727 9.99996 3.97727Z" fill="#EA4335"/>
</g>
<defs>
<clipPath id="clip0_166_264">
<rect width="20" height="20" fill="white"/>
</clipPath>
</defs>
</svg>
