<svg width="20" height="20" viewBox="0 0 20 20" fill="none" xmlns="http://www.w3.org/2000/svg">
<path d="M10 0.832031C12.7623 0.832031 15.002 3.07164 15.002 5.83398V7.49902H15.5C17.0657 7.49902 18.335 8.76826 18.335 10.334V16.334C18.3346 17.8994 17.0655 19.1689 15.5 19.1689H4.5C2.93449 19.1689 1.66539 17.8994 1.66504 16.334V10.334C1.66504 8.76826 2.93427 7.49902 4.5 7.49902H4.99805V5.83398C4.99805 3.07164 7.23766 0.832031 10 0.832031ZM4.5 9.16895C3.85659 9.16895 3.33496 9.69057 3.33496 10.334V16.334C3.33531 16.9771 3.85681 17.499 4.5 17.499H15.5C16.1432 17.499 16.6647 16.9771 16.665 16.334V10.334C16.665 9.69057 16.1434 9.16895 15.5 9.16895H4.5ZM10 11.665C10.461 11.665 10.8348 12.039 10.835 12.5V14.167C10.8348 14.628 10.461 15.002 10 15.002C9.53895 15.002 9.16522 14.628 9.16504 14.167V12.5C9.16521 12.039 9.53895 11.665 10 11.665ZM10 2.50195C8.15997 2.50195 6.66797 3.99396 6.66797 5.83398V7.49902H13.332V5.83398C13.332 3.99396 11.84 2.50195 10 2.50195Z" fill="#94979E"/>
</svg>
