<svg width="20" height="20" viewBox="0 0 20 20" fill="none" xmlns="http://www.w3.org/2000/svg">
<path d="M16.3339 2.49805C17.8992 2.49835 19.1686 3.76762 19.1688 5.33301V14.666C19.1688 16.2316 17.8993 17.5007 16.3339 17.501H3.66687C2.10114 17.501 0.831909 16.2317 0.831909 14.666V5.33301C0.832085 3.76743 2.10125 2.49805 3.66687 2.49805H16.3339ZM11.6259 11.5479C10.6499 12.2309 9.3509 12.2308 8.37488 11.5479L2.50183 7.43555V14.666C2.50183 15.3094 3.02346 15.8311 3.66687 15.8311H16.3339C16.977 15.8307 17.4989 15.3092 17.4989 14.666V7.43555L11.6259 11.5479ZM3.66687 4.16797C3.02357 4.16797 2.50201 4.68975 2.50183 5.33301V5.39844L9.33191 10.1797C9.7329 10.4604 10.2668 10.4602 10.6678 10.1797L17.4989 5.39746V5.33301C17.4987 4.68993 16.9769 4.16827 16.3339 4.16797H3.66687Z" fill="#94979E"/>
</svg>
