<svg width="32" height="32" viewBox="0 0 32 32" fill="none" xmlns="http://www.w3.org/2000/svg">
<rect width="32" height="32" rx="16" fill="#17144C"/>
<path d="M24.7933 17.0083L23.3333 11.7633C22.8624 10.0733 21.8401 8.58912 20.429 7.54659C19.0179 6.50406 17.2989 5.96299 15.5451 6.00934C13.7913 6.05569 12.1032 6.6868 10.7492 7.80241C9.39511 8.91801 8.45269 10.4541 8.07165 12.1667L6.94332 17.2408C6.79446 17.9108 6.79794 18.6056 6.9535 19.274C7.10906 19.9424 7.41273 20.5673 7.8421 21.1026C8.27146 21.638 8.81556 22.0701 9.43424 22.367C10.0529 22.664 10.7304 22.8182 11.4167 22.8183H11.75C12.0152 23.7354 12.5712 24.5415 13.3343 25.1152C14.0973 25.6889 15.0262 25.9991 15.9808 25.9991C16.9355 25.9991 17.8643 25.6889 18.6274 25.1152C19.3905 24.5415 19.9465 23.7354 20.2117 22.8183H20.3725C21.0791 22.8184 21.7762 22.6551 22.4092 22.3412C23.0423 22.0273 23.5942 21.5713 24.0218 21.0087C24.4494 20.4462 24.7412 19.7924 24.8743 19.0985C25.0074 18.4045 24.9783 17.6892 24.7892 17.0083H24.7933ZM22.0358 19.495C21.8424 19.7519 21.5917 19.96 21.3036 20.103C21.0156 20.2459 20.6982 20.3196 20.3767 20.3183H11.4167C11.1047 20.3183 10.7968 20.2482 10.5156 20.1132C10.2344 19.9782 9.98712 19.7819 9.79196 19.5385C9.5968 19.2952 9.45876 19.0112 9.38804 18.7074C9.31731 18.4036 9.3157 18.0878 9.38332 17.7833L10.5117 12.7C10.7708 11.5301 11.4138 10.4804 12.3384 9.71817C13.2629 8.95591 14.4159 8.52485 15.6138 8.49361C16.8117 8.46237 17.9856 8.83275 18.9487 9.54577C19.9117 10.2588 20.6086 11.2735 20.9283 12.4283L22.385 17.6733C22.4729 17.9832 22.4871 18.3093 22.4264 18.6256C22.3658 18.9419 22.232 19.2396 22.0358 19.495Z" fill="white"/>
</svg>
