<svg width="16" height="16" viewBox="0 0 16 16" fill="none" xmlns="http://www.w3.org/2000/svg">
<g clip-path="url(#clip0_43_525)">
<path d="M15.2161 0.783999C14.7066 0.2971 14.0289 0.0253906 13.3241 0.0253906C12.6193 0.0253906 11.9417 0.2971 11.4321 0.783999L1.07413 11.142C0.732739 11.4815 0.462042 11.8853 0.277695 12.3301C0.0933478 12.7749 -0.00099165 13.2519 0.000131991 13.7333V15C0.000131991 15.2652 0.105489 15.5196 0.293025 15.7071C0.480562 15.8946 0.734916 16 1.00013 16H2.2668C2.7485 16.0013 3.22568 15.907 3.67071 15.7227C4.11574 15.5383 4.51979 15.2676 4.85947 14.926L15.2161 4.568C15.7172 4.06582 15.9986 3.3854 15.9986 2.676C15.9986 1.9666 15.7172 1.28617 15.2161 0.783999ZM3.44413 13.512C3.13106 13.823 2.70812 13.9984 2.2668 14H2.00013V13.7333C2.0015 13.2916 2.17682 12.8681 2.48813 12.5547L10.2001 4.84467L11.1555 5.8L3.44413 13.512ZM13.8001 3.154L12.5695 4.38667L11.6135 3.43067L12.8468 2.2C12.9754 2.07705 13.1465 2.00844 13.3245 2.00844C13.5024 2.00844 13.6735 2.07705 13.8021 2.2C13.9279 2.32704 13.9982 2.49867 13.9979 2.67741C13.9975 2.85615 13.9264 3.02749 13.8001 3.154Z" fill="#BABABB"/>
</g>
<defs>
<clipPath id="clip0_43_525">
<rect width="16" height="16" fill="white"/>
</clipPath>
</defs>
</svg>
