<svg width="28" height="28" viewBox="0 0 28 28" fill="none" xmlns="http://www.w3.org/2000/svg">
<g clip-path="url(#clip0_43_546)">
<path d="M20.4166 28C10.9095 28.2672 -5.92088 11.4182 2.17229 2.261C2.20145 2.233 3.44629 1.148 3.44629 1.148C4.22756 0.425768 5.25484 0.0286288 6.31876 0.0375165C7.38269 0.0464042 8.40318 0.46065 9.17229 1.19583L11.683 3.90017C12.4225 4.67306 12.8315 5.70389 12.823 6.77357C12.8145 7.84325 12.3892 8.86746 11.6375 9.6285L11.1848 10.0882C12.5329 13.0735 14.9181 15.4686 17.8978 16.8292L18.3773 16.3625C19.155 15.6218 20.1879 15.2086 21.2619 15.2086C22.3359 15.2086 23.3687 15.6218 24.1465 16.3625L26.7563 18.7833C27.5293 19.5385 27.9731 20.5683 27.991 21.6488C28.0089 22.7294 27.5995 23.7733 26.852 24.5537C26.852 24.5537 25.767 25.7973 25.739 25.8265C25.0398 26.523 24.2094 27.0738 23.2957 27.4469C22.3821 27.82 21.4035 28.008 20.4166 28ZM4.60829 4.78333C-1.06055 11.8043 17.0846 28.9018 23.2225 23.3917C23.2225 23.3917 24.3005 22.1562 24.3296 22.1282C24.439 22.0188 24.5004 21.8704 24.5004 21.7158C24.5004 21.5611 24.439 21.4127 24.3296 21.3033L21.7186 18.8837C21.3686 18.592 21.1715 18.5885 20.8471 18.837L19.5218 20.1413C19.2827 20.3765 18.9811 20.538 18.6529 20.6067C18.3246 20.6754 17.9836 20.6483 17.6703 20.5287C15.3423 19.6624 13.2279 18.3057 11.4702 16.5507C9.7125 14.7956 8.3527 12.6831 7.48295 10.3565C7.35636 10.0407 7.32459 9.69479 7.39151 9.36119C7.45844 9.02759 7.62117 8.72073 7.85979 8.47817L9.15245 7.1645C9.21132 7.11221 9.25863 7.0482 9.29134 6.97658C9.32406 6.90496 9.34147 6.8273 9.34246 6.74857C9.34345 6.66984 9.32799 6.59176 9.29708 6.51934C9.26617 6.44692 9.22049 6.38175 9.16295 6.328L6.64995 3.62367C6.53876 3.53074 6.39626 3.48382 6.2516 3.49249C6.10695 3.50117 5.97108 3.56479 5.87179 3.67033C5.84379 3.6995 4.60829 4.78333 4.60829 4.78333ZM28 11.0833C27.9966 8.14489 26.8278 5.32778 24.75 3.24998C22.6722 1.17219 19.8551 0.00339651 16.9166 0C16.4525 0 16.0074 0.184374 15.6792 0.512563C15.351 0.840752 15.1666 1.28587 15.1666 1.75C15.1666 2.21413 15.351 2.65925 15.6792 2.98744C16.0074 3.31563 16.4525 3.5 16.9166 3.5C18.9271 3.50247 20.8545 4.30222 22.2761 5.72383C23.6977 7.14545 24.4975 9.07287 24.5 11.0833C24.5 11.5475 24.6843 11.9926 25.0125 12.3208C25.3407 12.649 25.7858 12.8333 26.25 12.8333C26.7141 12.8333 27.1592 12.649 27.4874 12.3208C27.8156 11.9926 28 11.5475 28 11.0833ZM22.1666 11.0833C22.1651 9.69142 21.6115 8.35696 20.6272 7.37273C19.643 6.3885 18.3085 5.83488 16.9166 5.83333C16.4525 5.83333 16.0074 6.01771 15.6792 6.3459C15.351 6.67409 15.1666 7.1192 15.1666 7.58333C15.1666 8.04746 15.351 8.49258 15.6792 8.82077C16.0074 9.14896 16.4525 9.33333 16.9166 9.33333C17.3807 9.33333 17.8259 9.51771 18.1541 9.8459C18.4822 10.1741 18.6666 10.6192 18.6666 11.0833C18.6666 11.5475 18.851 11.9926 19.1792 12.3208C19.5074 12.649 19.9525 12.8333 20.4166 12.8333C20.8807 12.8333 21.3259 12.649 21.6541 12.3208C21.9822 11.9926 22.1666 11.5475 22.1666 11.0833Z" fill="#17144C"/>
</g>
<defs>
<clipPath id="clip0_43_546">
<rect width="28" height="28" fill="white"/>
</clipPath>
</defs>
</svg>
