<svg width="32" height="32" viewBox="0 0 32 32" fill="none" xmlns="http://www.w3.org/2000/svg">
<g clip-path="url(#clip0_277_420)">
<path d="M16 0C12.8355 0 9.74207 0.938384 7.11088 2.69649C4.4797 4.45459 2.42894 6.95345 1.21793 9.87707C0.00693258 12.8007 -0.309921 16.0177 0.307443 19.1214C0.924806 22.2251 2.44866 25.0761 4.6863 27.3137C6.92394 29.5514 9.77487 31.0752 12.8786 31.6926C15.9823 32.3099 19.1993 31.9931 22.1229 30.7821C25.0466 29.5711 27.5454 27.5203 29.3035 24.8891C31.0616 22.2579 32 19.1645 32 16C31.9954 11.7579 30.3082 7.69095 27.3087 4.69136C24.3091 1.69177 20.2421 0.00458811 16 0V0ZM16 28C13.6266 28 11.3066 27.2962 9.33316 25.9776C7.35977 24.6591 5.8217 22.7849 4.91345 20.5922C4.0052 18.3995 3.76756 15.9867 4.23058 13.6589C4.69361 11.3311 5.8365 9.19295 7.51473 7.51472C9.19296 5.83649 11.3312 4.6936 13.6589 4.23058C15.9867 3.76755 18.3995 4.00519 20.5922 4.91345C22.7849 5.8217 24.6591 7.35977 25.9776 9.33316C27.2962 11.3065 28 13.6266 28 16C27.9965 19.1815 26.7311 22.2317 24.4814 24.4814C22.2317 26.7311 19.1815 27.9965 16 28ZM22.6667 16C22.6667 16.5304 22.456 17.0391 22.0809 17.4142C21.7058 17.7893 21.1971 18 20.6667 18H18V20.6667C18 21.1971 17.7893 21.7058 17.4142 22.0809C17.0391 22.456 16.5304 22.6667 16 22.6667C15.4696 22.6667 14.9609 22.456 14.5858 22.0809C14.2107 21.7058 14 21.1971 14 20.6667V18H11.3333C10.8029 18 10.2942 17.7893 9.91913 17.4142C9.54405 17.0391 9.33334 16.5304 9.33334 16C9.33334 15.4696 9.54405 14.9609 9.91913 14.5858C10.2942 14.2107 10.8029 14 11.3333 14H14V11.3333C14 10.8029 14.2107 10.2942 14.5858 9.91912C14.9609 9.54405 15.4696 9.33333 16 9.33333C16.5304 9.33333 17.0391 9.54405 17.4142 9.91912C17.7893 10.2942 18 10.8029 18 11.3333V14H20.6667C21.1971 14 21.7058 14.2107 22.0809 14.5858C22.456 14.9609 22.6667 15.4696 22.6667 16Z" fill="#0F0D25"/>
</g>
<defs>
<clipPath id="clip0_277_420">
<rect width="32" height="32" fill="white"/>
</clipPath>
</defs>
</svg>
