<svg width="32" height="32" viewBox="0 0 32 32" fill="none" xmlns="http://www.w3.org/2000/svg">
<path d="M1.6 9.6C1.17565 9.6 0.768687 9.43143 0.468629 9.13137C0.168571 8.83131 0 8.42435 0 8V3.2C0 2.35131 0.337142 1.53737 0.937258 0.937258C1.53737 0.337142 2.35131 0 3.2 0H8C8.42435 0 8.83131 0.168571 9.13137 0.468629C9.43143 0.768687 9.6 1.17565 9.6 1.6C9.6 2.02435 9.43143 2.43131 9.13137 2.73137C8.83131 3.03143 8.42435 3.2 8 3.2H3.2V8C3.2 8.42435 3.03143 8.83131 2.73137 9.13137C2.43131 9.43143 2.02435 9.6 1.6 9.6ZM32 8V3.2C32 2.35131 31.6629 1.53737 31.0627 0.937258C30.4626 0.337142 29.6487 0 28.8 0H24C23.5757 0 23.1687 0.168571 22.8686 0.468629C22.5686 0.768687 22.4 1.17565 22.4 1.6C22.4 2.02435 22.5686 2.43131 22.8686 2.73137C23.1687 3.03143 23.5757 3.2 24 3.2H28.8V8C28.8 8.42435 28.9686 8.83131 29.2686 9.13137C29.5687 9.43143 29.9757 9.6 30.4 9.6C30.8243 9.6 31.2313 9.43143 31.5314 9.13137C31.8314 8.83131 32 8.42435 32 8ZM9.6 30.4C9.6 29.9757 9.43143 29.5687 9.13137 29.2686C8.83131 28.9686 8.42435 28.8 8 28.8H3.2V24C3.2 23.5757 3.03143 23.1687 2.73137 22.8686C2.43131 22.5686 2.02435 22.4 1.6 22.4C1.17565 22.4 0.768687 22.5686 0.468629 22.8686C0.168571 23.1687 0 23.5757 0 24V28.8C0 29.6487 0.337142 30.4626 0.937258 31.0627C1.53737 31.6629 2.35131 32 3.2 32H8C8.42435 32 8.83131 31.8314 9.13137 31.5314C9.43143 31.2313 9.6 30.8243 9.6 30.4ZM32 28.8V24C32 23.5757 31.8314 23.1687 31.5314 22.8686C31.2313 22.5686 30.8243 22.4 30.4 22.4C29.9757 22.4 29.5687 22.5686 29.2686 22.8686C28.9686 23.1687 28.8 23.5757 28.8 24V28.8H24C23.5757 28.8 23.1687 28.9686 22.8686 29.2686C22.5686 29.5687 22.4 29.9757 22.4 30.4C22.4 30.8243 22.5686 31.2313 22.8686 31.5314C23.1687 31.8314 23.5757 32 24 32H28.8C29.6487 32 30.4626 31.6629 31.0627 31.0627C31.6629 30.4626 32 29.6487 32 28.8Z" fill="white"/>
<path d="M26.8 17.6H5.2C4.88174 17.6 4.57652 17.4315 4.35147 17.1314C4.12643 16.8313 4 16.4244 4 16C4 15.5757 4.12643 15.1687 4.35147 14.8687C4.57652 14.5686 4.88174 14.4 5.2 14.4H26.8C27.1183 14.4 27.4235 14.5686 27.6485 14.8687C27.8736 15.1687 28 15.5757 28 16C28 16.4244 27.8736 16.8313 27.6485 17.1314C27.4235 17.4315 27.1183 17.6 26.8 17.6Z" fill="white"/>
</svg>
