<svg width="24" height="24" viewBox="0 0 24 24" fill="none" xmlns="http://www.w3.org/2000/svg">
<g clip-path="url(#clip0_316_968)">
<path d="M24 10.0914L22.751 4.30743C22.4853 3.08288 21.807 1.98679 20.8296 1.20271C19.8522 0.418635 18.635 -0.00581814 17.382 0.000434312H6.618C5.36497 -0.00581814 4.14784 0.418635 3.17043 1.20271C2.19302 1.98679 1.51468 3.08288 1.249 4.30743L0.036 9.76643L0 11.0464C0.00452092 12.0498 0.358074 13.0203 1 13.7914V18.5004C1.00159 19.9586 1.58156 21.3567 2.61267 22.3878C3.64377 23.4189 5.0418 23.9988 6.5 24.0004H17.5C18.9582 23.9988 20.3562 23.4189 21.3873 22.3878C22.4184 21.3567 22.9984 19.9586 23 18.5004V13.7914C23.6419 13.0203 23.9955 12.0498 24 11.0464V10.0914ZM3 10.2564L4.177 4.95643C4.30074 4.40139 4.61002 3.90511 5.0538 3.54951C5.49757 3.19391 6.04933 3.00023 6.618 3.00043H7V4.50043C7 4.89826 7.15804 5.27979 7.43934 5.56109C7.72064 5.8424 8.10218 6.00043 8.5 6.00043C8.89782 6.00043 9.27936 5.8424 9.56066 5.56109C9.84196 5.27979 10 4.89826 10 4.50043V3.00043H14V4.50043C14 4.89826 14.158 5.27979 14.4393 5.56109C14.7206 5.8424 15.1022 6.00043 15.5 6.00043C15.8978 6.00043 16.2794 5.8424 16.5607 5.56109C16.842 5.27979 17 4.89826 17 4.50043V3.00043H17.382C17.9509 3.00033 18.5029 3.19429 18.9467 3.55029C19.3905 3.90629 19.6997 4.40302 19.823 4.95843L21 10.2564V11.0464C20.9904 11.4017 20.8425 11.7391 20.5878 11.987C20.3332 12.2348 19.9919 12.3735 19.6365 12.3735C19.2811 12.3735 18.9398 12.2348 18.6852 11.987C18.4305 11.7391 18.2826 11.4017 18.273 11.0464C18.2796 10.7199 18.221 10.3954 18.1006 10.0918C17.9802 9.78828 17.8005 9.51178 17.5719 9.27855C17.3433 9.04531 17.0705 8.86003 16.7694 8.73353C16.4683 8.60704 16.1451 8.54189 15.8185 8.54189C15.4919 8.54189 15.1687 8.60704 14.8676 8.73353C14.5665 8.86003 14.2937 9.04531 14.0651 9.27855C13.8365 9.51178 13.6568 9.78828 13.5364 10.0918C13.416 10.3954 13.3574 10.7199 13.364 11.0464C13.364 11.4082 13.2203 11.7551 12.9645 12.0109C12.7087 12.2667 12.3618 12.4104 12 12.4104C11.6382 12.4104 11.2913 12.2667 11.0355 12.0109C10.7797 11.7551 10.636 11.4082 10.636 11.0464C10.6426 10.7199 10.584 10.3954 10.4636 10.0918C10.3432 9.78828 10.1635 9.51178 9.93488 9.27855C9.7063 9.04531 9.43349 8.86003 9.13242 8.73353C8.83135 8.60704 8.50807 8.54189 8.1815 8.54189C7.85494 8.54189 7.53165 8.60704 7.23058 8.73353C6.92951 8.86003 6.6567 9.04531 6.42812 9.27855C6.19955 9.51178 6.0198 9.78828 5.89942 10.0918C5.77903 10.3954 5.72041 10.7199 5.727 11.0464C5.71738 11.4017 5.5695 11.7391 5.31485 11.987C5.06019 12.2348 4.71886 12.3735 4.3635 12.3735C4.00814 12.3735 3.66681 12.2348 3.41215 11.987C3.1575 11.7391 3.00962 11.4017 3 11.0464V10.2564ZM17.5 21.0004H6.5C5.83696 21.0004 5.20107 20.737 4.73223 20.2682C4.26339 19.7994 4 19.1635 4 18.5004V15.3724C4.122 15.3834 4.239 15.4094 4.364 15.4094C5.14356 15.4089 5.90876 15.1996 6.58015 14.8034C7.25153 14.4073 7.80463 13.8386 8.182 13.1564C8.55903 13.8388 9.11206 14.4077 9.78353 14.8039C10.455 15.2 11.2204 15.409 12 15.409C12.7796 15.409 13.545 15.2 14.2165 14.8039C14.8879 14.4077 15.441 13.8388 15.818 13.1564C16.1954 13.8386 16.7485 14.4073 17.4199 14.8034C18.0912 15.1996 18.8564 15.4089 19.636 15.4094C19.761 15.4094 19.878 15.3834 20 15.3724V18.5004C20 18.8287 19.9353 19.1538 19.8097 19.4571C19.6841 19.7605 19.4999 20.0361 19.2678 20.2682C19.0356 20.5003 18.76 20.6845 18.4567 20.8101C18.1534 20.9358 17.8283 21.0004 17.5 21.0004Z" fill="#17144C"/>
</g>
<defs>
<clipPath id="clip0_316_968">
<rect width="24" height="24" fill="white"/>
</clipPath>
</defs>
</svg>
