<svg width="32" height="32" viewBox="0 0 32 32" fill="none" xmlns="http://www.w3.org/2000/svg">
<path d="M6.48208 3.80644L8.54875 3.21711L9.13808 1.15044C9.23302 0.818818 9.43336 0.527128 9.7088 0.319479C9.98424 0.111829 10.3198 -0.000488281 10.6647 -0.000488281C11.0097 -0.000488281 11.3453 0.111829 11.6207 0.319479C11.8961 0.527128 12.0965 0.818818 12.1914 1.15044L12.7807 3.21711L14.8474 3.80644C15.179 3.90138 15.4707 4.10172 15.6784 4.37716C15.886 4.6526 15.9983 4.98816 15.9983 5.33311C15.9983 5.67805 15.886 6.01361 15.6784 6.28905C15.4707 6.56449 15.179 6.76483 14.8474 6.85977L12.7807 7.44911L12.1914 9.51577C12.0965 9.84739 11.8961 10.1391 11.6207 10.3467C11.3453 10.5544 11.0097 10.6667 10.6647 10.6667C10.3198 10.6667 9.98424 10.5544 9.7088 10.3467C9.43336 10.1391 9.23302 9.84739 9.13808 9.51577L8.54875 7.44911L6.48208 6.85977C6.15046 6.76483 5.85877 6.56449 5.65112 6.28905C5.44347 6.01361 5.33115 5.67805 5.33115 5.33311C5.33115 4.98816 5.44347 4.6526 5.65112 4.37716C5.85877 4.10172 6.15046 3.90138 6.48208 3.80644V3.80644ZM30.8474 19.8064L28.7807 19.2171L28.1914 17.1504C28.0965 16.8188 27.8961 16.5271 27.6207 16.3195C27.3453 16.1118 27.0097 15.9995 26.6647 15.9995C26.3198 15.9995 25.9842 16.1118 25.7088 16.3195C25.4334 16.5271 25.233 16.8188 25.1381 17.1504L24.5487 19.2171L22.4821 19.8064C22.1505 19.9014 21.8588 20.1017 21.6511 20.3772C21.4435 20.6526 21.3312 20.9882 21.3312 21.3331C21.3312 21.678 21.4435 22.0136 21.6511 22.2891C21.8588 22.5645 22.1505 22.7648 22.4821 22.8598L24.5487 23.4491L25.1381 25.5158C25.233 25.8474 25.4334 26.1391 25.7088 26.3467C25.9842 26.5544 26.3198 26.6667 26.6647 26.6667C27.0097 26.6667 27.3453 26.5544 27.6207 26.3467C27.8961 26.1391 28.0965 25.8474 28.1914 25.5158L28.7807 23.4491L30.8474 22.8598C31.179 22.7648 31.4707 22.5645 31.6784 22.2891C31.886 22.0136 31.9983 21.678 31.9983 21.3331C31.9983 20.9882 31.886 20.6526 31.6784 20.3772C31.4707 20.1017 31.179 19.9014 30.8474 19.8064V19.8064ZM23.6714 5.99977L25.4794 6.51577L25.9981 8.32511C26.0825 8.61335 26.258 8.86648 26.4984 9.04655C26.7388 9.22663 27.0311 9.32397 27.3314 9.32397C27.6318 9.32397 27.924 9.22663 28.1644 9.04655C28.4048 8.86648 28.5803 8.61335 28.6647 8.32511L29.1807 6.51844L30.9914 5.99977C31.2797 5.91536 31.5328 5.73981 31.7129 5.49943C31.8929 5.25905 31.9903 4.96679 31.9903 4.66644C31.9903 4.36609 31.8929 4.07383 31.7129 3.83345C31.5328 3.59307 31.2797 3.41752 30.9914 3.33311L29.1834 2.81711L28.6647 1.00644C28.5803 0.718195 28.4048 0.465068 28.1644 0.284989C27.924 0.10491 27.6318 0.00757851 27.3314 0.00757851C27.0311 0.00757851 26.7388 0.10491 26.4984 0.284989C26.258 0.465068 26.0825 0.718195 25.9981 1.00644L25.4821 2.81444L23.6714 3.33311C23.3832 3.41752 23.13 3.59307 22.95 3.83345C22.7699 4.07383 22.6726 4.36609 22.6726 4.66644C22.6726 4.96679 22.7699 5.25905 22.95 5.49943C23.13 5.73981 23.3832 5.91536 23.6714 5.99977V5.99977ZM22.8714 16.8638L8.91274 30.4851C7.9296 31.4583 6.6012 32.0028 5.21784 31.9995C3.83447 31.9963 2.50864 31.4456 1.53008 30.4678C0.550264 29.4857 0 28.155 0 26.7678C0 25.3805 0.550264 24.0499 1.53008 23.0678L15.5621 9.37711C16.3005 8.6559 17.2358 8.16929 18.2502 7.97853C19.2646 7.78777 20.3127 7.9014 21.2627 8.3051C22.2126 8.7088 23.0219 9.38453 23.5886 10.2472C24.1553 11.1099 24.4541 12.121 24.4474 13.1531C24.4454 13.8461 24.3047 14.5317 24.0336 15.1694C23.7624 15.8071 23.3664 16.3842 22.8687 16.8664L22.8714 16.8638ZM14.6314 19.3158L12.8861 17.5758L4.34075 25.9131C4.11636 26.1454 3.99251 26.4567 3.996 26.7796C3.99949 27.1025 4.13006 27.4111 4.35941 27.6384C4.59355 27.8632 4.90553 27.9887 5.23008 27.9887C5.55463 27.9887 5.8666 27.8632 6.10075 27.6384L14.6314 19.3158ZM20.4501 13.1264C20.4515 12.8835 20.3811 12.6456 20.2476 12.4425C20.1142 12.2395 19.9237 12.0805 19.7001 11.9855C19.4765 11.8904 19.2298 11.8636 18.991 11.9084C18.7523 11.9531 18.532 12.0675 18.3581 12.2371L15.7514 14.7798L17.4941 16.5224L20.0767 13.9998C20.1931 13.8864 20.2858 13.7511 20.3494 13.6016C20.413 13.4522 20.4464 13.2915 20.4474 13.1291L20.4501 13.1264Z" fill="#0F0D25"/>
</svg>
